<svg version="1.1" xmlns="http://www.w3.org/2000/svg" xmlns:xlink="http://www.w3.org/1999/xlink" width="16" height="15" viewBox="0,0,256,240"><g fill-opacity="0.18824" fill="#000000" fill-rule="nonzero" stroke="none" stroke-width="1" stroke-linecap="butt" stroke-linejoin="miter" stroke-miterlimit="10" stroke-dasharray="" stroke-dashoffset="0" font-family="none" font-weight="none" font-size="none" text-anchor="none" style="mix-blend-mode: normal"><g transform="scale(16,16)"><g id="Vector"><path d="M5.75,10c0.3,0 0.5,-0.2 0.5,-0.5c0,-0.3 -0.2,-0.5 -0.5,-0.5c-0.3,0 -0.5,0.2 -0.5,0.5c0,0.3 0.2,0.5 0.5,0.5z"></path><path d="M15,2h-2v-2h-1v2h-8v-2h-1v2h-2c-0.6,0 -1,0.4 -1,1v11c0,0.5 0.4,1 1,1h14c0.5,0 1,-0.5 1,-1v-11c0,-0.6 -0.5,-1 -1,-1zM15,14h-14v-7h14zM1,6v-3h2v2h1v-2h8v2h1v-2h2v3z"></path><path d="M8,10c0.3,0 0.5,-0.2 0.5,-0.5c0,-0.3 -0.2,-0.5 -0.5,-0.5c-0.3,0 -0.5,0.2 -0.5,0.5c0,0.3 0.2,0.5 0.5,0.5z"></path><path d="M10.25,10c0.3,0 0.5,-0.2 0.5,-0.5c0,-0.3 -0.2,-0.5 -0.5,-0.5c-0.3,0 -0.5,0.2 -0.5,0.5c0,0.3 0.2,0.5 0.5,0.5z"></path><path d="M5.75,11c-0.3,0 -0.5,0.2 -0.5,0.5c0,0.3 0.2,0.5 0.5,0.5c0.3,0 0.5,-0.2 0.5,-0.5c0,-0.3 -0.2,-0.5 -0.5,-0.5z"></path><path d="M3.5,10c0.3,0 0.5,-0.2 0.5,-0.5c0,-0.3 -0.2,-0.5 -0.5,-0.5c-0.3,0 -0.5,0.2 -0.5,0.5c0,0.3 0.2,0.5 0.5,0.5z"></path><path d="M3.5,11c-0.3,0 -0.5,0.2 -0.5,0.5c0,0.3 0.2,0.5 0.5,0.5c0.3,0 0.5,-0.2 0.5,-0.5c0,-0.3 -0.2,-0.5 -0.5,-0.5z"></path><path d="M8,11c-0.3,0 -0.5,0.2 -0.5,0.5c0,0.3 0.2,0.5 0.5,0.5c0.3,0 0.5,-0.2 0.5,-0.5c0,-0.3 -0.2,-0.5 -0.5,-0.5z"></path><path d="M10.25,11c-0.3,0 -0.5,0.2 -0.5,0.5c0,0.3 0.2,0.5 0.5,0.5c0.3,0 0.5,-0.2 0.5,-0.5c0,-0.3 -0.2,-0.5 -0.5,-0.5z"></path><path d="M12.5,10c0.3,0 0.5,-0.2 0.5,-0.5c0,-0.3 -0.2,-0.5 -0.5,-0.5c-0.3,0 -0.5,0.2 -0.5,0.5c0,0.3 0.2,0.5 0.5,0.5z"></path><path d="M12.5,11c-0.3,0 -0.5,0.2 -0.5,0.5c0,0.3 0.2,0.5 0.5,0.5c0.3,0 0.5,-0.2 0.5,-0.5c0,-0.3 -0.2,-0.5 -0.5,-0.5z"></path></g></g></g></svg>